# xmcd
#
# Track frame offsets: 
#        150
#        20993
#        38788
#        62910
#        79983
#        97773
#        112508
#        136635
#        155998
#        172865
#        186185
#        199800
#        215598
#
# Disc length: 3113 seconds
#
# Revision: 0
# Processed by: cddbd v1.4PL0 Copyright (c) Steve Scherf et al.
# Submitted via: ExactAudioCopy v0.90a11
#
DISCID=ac0c270d
DTITLE=Ron Sunshine and the Smoking Section - Pick It Up
DYEAR=1900
DGENRE=
TTITLE0=call you up
TTITLE1=mr. right now
TTITLE2=fly away
TTITLE3=try and try again
TTITLE4=not even if I could
TTITLE5=where are you now?
TTITLE6=outside neighbor
TTITLE7=she won't believe
TTITLE8=(I wanna) testify
TTITLE9=in a hole
TTITLE10=can't keep you satisfied
TTITLE11=I got to move
TTITLE12=pick it up
EXTD=
EXTT0=
EXTT1=
EXTT2=
EXTT3=
EXTT4=
EXTT5=
EXTT6=
EXTT7=
EXTT8=
EXTT9=
EXTT10=
EXTT11=
EXTT12=
PLAYORDER=
